<svg id="mermaid-1634304459679" width="100%" xmlns="http://www.w3.org/2000/svg" xmlns:xlink="http://www.w3.org/1999/xlink" height="426" style="max-width: 492.609375px;" viewBox="-20 -20 492.609375 426"><style>#mermaid-1634304459679{font-family:"trebuchet ms",verdana,arial,sans-serif;font-size:16px;fill:#333;}#mermaid-1634304459679 .error-icon{fill:#552222;}#mermaid-1634304459679 .error-text{fill:#552222;stroke:#552222;}#mermaid-1634304459679 .edge-thickness-normal{stroke-width:2px;}#mermaid-1634304459679 .edge-thickness-thick{stroke-width:3.5px;}#mermaid-1634304459679 .edge-pattern-solid{stroke-dasharray:0;}#mermaid-1634304459679 .edge-pattern-dashed{stroke-dasharray:3;}#mermaid-1634304459679 .edge-pattern-dotted{stroke-dasharray:2;}#mermaid-1634304459679 .marker{fill:#333333;stroke:#333333;}#mermaid-1634304459679 .marker.cross{stroke:#333333;}#mermaid-1634304459679 svg{font-family:"trebuchet ms",verdana,arial,sans-serif;font-size:16px;}#mermaid-1634304459679 g.classGroup text{fill:#9370DB;fill:#131300;stroke:none;font-family:"trebuchet ms",verdana,arial,sans-serif;font-size:10px;}#mermaid-1634304459679 g.classGroup text .title{font-weight:bolder;}#mermaid-1634304459679 .classTitle{font-weight:bolder;}#mermaid-1634304459679 .node rect,#mermaid-1634304459679 .node circle,#mermaid-1634304459679 .node ellipse,#mermaid-1634304459679 .node polygon,#mermaid-1634304459679 .node path{fill:#ECECFF;stroke:#9370DB;stroke-width:1px;}#mermaid-1634304459679 .divider{stroke:#9370DB;stroke:1;}#mermaid-1634304459679 g.clickable{cursor:pointer;}#mermaid-1634304459679 g.classGroup rect{fill:#ECECFF;stroke:#9370DB;}#mermaid-1634304459679 g.classGroup line{stroke:#9370DB;stroke-width:1;}#mermaid-1634304459679 .classLabel .box{stroke:none;stroke-width:0;fill:#ECECFF;opacity:0.5;}#mermaid-1634304459679 .classLabel .label{fill:#9370DB;font-size:10px;}#mermaid-1634304459679 .relation{stroke:#333333;stroke-width:1;fill:none;}#mermaid-1634304459679 .dashed-line{stroke-dasharray:3;}#mermaid-1634304459679 #compositionStart,#mermaid-1634304459679 .composition{fill:#333333 !important;stroke:#333333 !important;stroke-width:1;}#mermaid-1634304459679 #compositionEnd,#mermaid-1634304459679 .composition{fill:#333333 !important;stroke:#333333 !important;stroke-width:1;}#mermaid-1634304459679 #dependencyStart,#mermaid-1634304459679 .dependency{fill:#333333 !important;stroke:#333333 !important;stroke-width:1;}#mermaid-1634304459679 #dependencyStart,#mermaid-1634304459679 .dependency{fill:#333333 !important;stroke:#333333 !important;stroke-width:1;}#mermaid-1634304459679 #extensionStart,#mermaid-1634304459679 .extension{fill:#333333 !important;stroke:#333333 !important;stroke-width:1;}#mermaid-1634304459679 #extensionEnd,#mermaid-1634304459679 .extension{fill:#333333 !important;stroke:#333333 !important;stroke-width:1;}#mermaid-1634304459679 #aggregationStart,#mermaid-1634304459679 .aggregation{fill:#ECECFF !important;stroke:#333333 !important;stroke-width:1;}#mermaid-1634304459679 #aggregationEnd,#mermaid-1634304459679 .aggregation{fill:#ECECFF !important;stroke:#333333 !important;stroke-width:1;}#mermaid-1634304459679 .edgeTerminals{font-size:11px;}#mermaid-1634304459679:root{--mermaid-font-family:"trebuchet ms",verdana,arial,sans-serif;}#mermaid-1634304459679 class{fill:apa;}</style><g></g><defs><marker id="extensionStart" class="extension" refX="0" refY="7" markerWidth="190" markerHeight="240" orient="auto"><path d="M 1,7 L18,13 V 1 Z"></path></marker></defs><defs><marker id="extensionEnd" refX="19" refY="7" markerWidth="20" markerHeight="28" orient="auto"><path d="M 1,1 V 13 L18,7 Z"></path></marker></defs><defs><marker id="compositionStart" class="extension" refX="0" refY="7" markerWidth="190" markerHeight="240" orient="auto"><path d="M 18,7 L9,13 L1,7 L9,1 Z"></path></marker></defs><defs><marker id="compositionEnd" refX="19" refY="7" markerWidth="20" markerHeight="28" orient="auto"><path d="M 18,7 L9,13 L1,7 L9,1 Z"></path></marker></defs><defs><marker id="aggregationStart" class="extension" refX="0" refY="7" markerWidth="190" markerHeight="240" orient="auto"><path d="M 18,7 L9,13 L1,7 L9,1 Z"></path></marker></defs><defs><marker id="aggregationEnd" refX="19" refY="7" markerWidth="20" markerHeight="28" orient="auto"><path d="M 18,7 L9,13 L1,7 L9,1 Z"></path></marker></defs><defs><marker id="dependencyStart" class="extension" refX="0" refY="7" markerWidth="190" markerHeight="240" orient="auto"><path d="M 5,7 L9,13 L1,7 L9,1 Z"></path></marker></defs><defs><marker id="dependencyEnd" refX="19" refY="7" markerWidth="20" markerHeight="28" orient="auto"><path d="M 18,7 L9,13 L14,7 L9,1 Z"></path></marker></defs><g id="classid-IOrderingService-0" class="classGroup" transform="translate(181.56640625,0 )"><rect x="0" y="0" width="131.4375" height="57" class=" "></rect><text y="15" x="0"><tspan x="44.3203125">«Service»</tspan><tspan class="title" dy="10" x="26.3984375">IOrderingService</tspan></text><line x1="0" y1="31" y2="31" x2="131.4375"></line><text x="5" y="41" fill="white" class="classText"></text><line x1="0" y1="36" y2="36" x2="131.4375"></line><text x="5" y="51" fill="white" class="classText"><tspan x="5">+PlaceOrder()</tspan></text></g><g id="classid-Order-1" class="classGroup" transform="translate(189.82421875,107 )"><rect x="0" y="0" width="114.921875" height="128" class=" "></rect><text y="15" x="0"><tspan x="18.9296875">«Aggregate root»</tspan><tspan class="title" dy="10" x="43.53125">Order</tspan></text><line x1="0" y1="31" y2="31" x2="114.921875"></line><text x="5" y="41" fill="white" class="classText"><tspan x="5">+ Id</tspan><tspan x="5" dy="10">+ OrderDate</tspan><tspan x="5" dy="10">+List OrderLines</tspan><tspan x="5" dy="10">+ Location</tspan><tspan x="5" dy="10">+ Notes</tspan><tspan x="5" dy="10">+ Customer</tspan><tspan x="5" dy="10">+ Status</tspan></text><line x1="0" y1="107" y2="107" x2="114.921875"></line><text x="5" y="122" fill="white" class="classText"><tspan x="5">+AddOrderLine()</tspan></text></g><g id="classid-OrderLine-2" class="classGroup" transform="translate(165.296875,300 )"><rect x="0" y="0" width="57.546875" height="71" class=" "></rect><text y="15" x="0"><tspan class="title" x="5">OrderLine</tspan></text><line x1="0" y1="21" y2="21" x2="57.546875"></line><text x="5" y="31" fill="white" class="classText"><tspan x="5">+ Id</tspan><tspan x="5" dy="10">+ Item</tspan><tspan x="5" dy="10">+ Price</tspan><tspan x="5" dy="10">+ Count</tspan></text><line x1="0" y1="67" y2="67" x2="57.546875"></line><text x="5" y="82" fill="white" class="classText"></text></g><g id="classid-Location-3" class="classGroup" transform="translate(0,300 )"><rect x="0" y="0" width="115.296875" height="71" class=" "></rect><text y="15" x="0"><tspan x="25.125">«ValueObject»</tspan><tspan class="title" dy="10" x="37.515625">Location</tspan></text><line x1="0" y1="31" y2="31" x2="115.296875"></line><text x="5" y="41" fill="white" class="classText"><tspan x="5">+ Building</tspan><tspan x="5" dy="10">+ RoomNumber</tspan><tspan x="5" dy="10">+ Notes</tspan></text><line x1="0" y1="67" y2="67" x2="115.296875"></line><text x="5" y="82" fill="white" class="classText"></text></g><g id="classid-Customer-4" class="classGroup" transform="translate(272.84375,310 )"><rect x="0" y="0" width="55.3125" height="51" class=" "></rect><text y="15" x="0"><tspan class="title" x="5">Customer</tspan></text><line x1="0" y1="21" y2="21" x2="55.3125"></line><text x="5" y="31" fill="white" class="classText"><tspan x="5">+ Id</tspan><tspan x="5" dy="10">+ Name</tspan></text><line x1="0" y1="47" y2="47" x2="55.3125"></line><text x="5" y="62" fill="white" class="classText"></text></g><g id="classid-Status-5" class="classGroup" transform="translate(378.15625,285 )"><rect x="0" y="0" width="74.453125" height="101" class=" "></rect><text y="15" x="0"><tspan x="19.640625">«enum»</tspan><tspan class="title" dy="10" x="22.578125">Status</tspan></text><line x1="0" y1="31" y2="31" x2="74.453125"></line><text x="5" y="41" fill="white" class="classText"><tspan x="5">New</tspan><tspan x="5" dy="10">Placed</tspan><tspan x="5" dy="10">Shipped</tspan><tspan x="5" dy="10">Delivered</tspan><tspan x="5" dy="10">Missing</tspan><tspan x="5" dy="10">Declined</tspan></text><line x1="0" y1="97" y2="97" x2="74.453125"></line><text x="5" y="112" fill="white" class="classText"></text></g><path d="M247.28515625,57L247.28515625,61.166666666666664C247.28515625,65.33333333333333,247.28515625,73.66666666666667,247.28515625,82C247.28515625,90.33333333333333,247.28515625,98.66666666666667,247.28515625,102.83333333333333L247.28515625,107" id="edge0" class="relation" marker-end="url(#dependencyEnd)"></path><path d="M189.82421875,197.9674748182174L167.794921875,208.30622901518117C145.765625,218.64498321214492,101.70703125,239.32249160607248,79.677734375,256.3279124697029C57.6484375,273.3333333333333,57.6484375,286.6666666666667,57.6484375,293.3333333333333L57.6484375,300" id="edge1" class="relation" marker-end="url(#dependencyEnd)"></path><path d="M209.01830231741573,235L206.5269706811798,239.16666666666666C204.03563904494385,243.33333333333334,199.0529757724719,251.66666666666666,196.56164413623597,262.5C194.0703125,273.3333333333333,194.0703125,286.6666666666667,194.0703125,293.3333333333333L194.0703125,300" id="edge2" class="relation" marker-end="url(#dependencyEnd)"></path><path d="M285.55201018258424,235L288.0433418188202,239.16666666666666C290.5346734550562,243.33333333333334,295.51733672752806,251.66666666666666,298.008668363764,264.1666666666667C300.5,276.6666666666667,300.5,293.3333333333333,300.5,301.6666666666667L300.5,310" id="edge3" class="relation" marker-end="url(#dependencyEnd)"></path><path d="M304.74609375,201.42293123881672L323.185546875,211.18577603234726C341.625,220.9486208258778,378.50390625,240.47431041293893,396.943359375,254.40382187313614C415.3828125,268.3333333333333,415.3828125,276.6666666666667,415.3828125,280.8333333333333L415.3828125,285" id="edge4" class="relation" marker-end="url(#dependencyEnd)"></path></svg>