<svg id="mermaid-1634304462680" width="100%" xmlns="http://www.w3.org/2000/svg" xmlns:xlink="http://www.w3.org/1999/xlink" height="272" style="max-width: 490.75px;" viewBox="-20 -20 490.75 272"><style>#mermaid-1634304462680{font-family:"trebuchet ms",verdana,arial,sans-serif;font-size:16px;fill:#333;}#mermaid-1634304462680 .error-icon{fill:#552222;}#mermaid-1634304462680 .error-text{fill:#552222;stroke:#552222;}#mermaid-1634304462680 .edge-thickness-normal{stroke-width:2px;}#mermaid-1634304462680 .edge-thickness-thick{stroke-width:3.5px;}#mermaid-1634304462680 .edge-pattern-solid{stroke-dasharray:0;}#mermaid-1634304462680 .edge-pattern-dashed{stroke-dasharray:3;}#mermaid-1634304462680 .edge-pattern-dotted{stroke-dasharray:2;}#mermaid-1634304462680 .marker{fill:#333333;stroke:#333333;}#mermaid-1634304462680 .marker.cross{stroke:#333333;}#mermaid-1634304462680 svg{font-family:"trebuchet ms",verdana,arial,sans-serif;font-size:16px;}#mermaid-1634304462680 g.classGroup text{fill:#9370DB;fill:#131300;stroke:none;font-family:"trebuchet ms",verdana,arial,sans-serif;font-size:10px;}#mermaid-1634304462680 g.classGroup text .title{font-weight:bolder;}#mermaid-1634304462680 .classTitle{font-weight:bolder;}#mermaid-1634304462680 .node rect,#mermaid-1634304462680 .node circle,#mermaid-1634304462680 .node ellipse,#mermaid-1634304462680 .node polygon,#mermaid-1634304462680 .node path{fill:#ECECFF;stroke:#9370DB;stroke-width:1px;}#mermaid-1634304462680 .divider{stroke:#9370DB;stroke:1;}#mermaid-1634304462680 g.clickable{cursor:pointer;}#mermaid-1634304462680 g.classGroup rect{fill:#ECECFF;stroke:#9370DB;}#mermaid-1634304462680 g.classGroup line{stroke:#9370DB;stroke-width:1;}#mermaid-1634304462680 .classLabel .box{stroke:none;stroke-width:0;fill:#ECECFF;opacity:0.5;}#mermaid-1634304462680 .classLabel .label{fill:#9370DB;font-size:10px;}#mermaid-1634304462680 .relation{stroke:#333333;stroke-width:1;fill:none;}#mermaid-1634304462680 .dashed-line{stroke-dasharray:3;}#mermaid-1634304462680 #compositionStart,#mermaid-1634304462680 .composition{fill:#333333 !important;stroke:#333333 !important;stroke-width:1;}#mermaid-1634304462680 #compositionEnd,#mermaid-1634304462680 .composition{fill:#333333 !important;stroke:#333333 !important;stroke-width:1;}#mermaid-1634304462680 #dependencyStart,#mermaid-1634304462680 .dependency{fill:#333333 !important;stroke:#333333 !important;stroke-width:1;}#mermaid-1634304462680 #dependencyStart,#mermaid-1634304462680 .dependency{fill:#333333 !important;stroke:#333333 !important;stroke-width:1;}#mermaid-1634304462680 #extensionStart,#mermaid-1634304462680 .extension{fill:#333333 !important;stroke:#333333 !important;stroke-width:1;}#mermaid-1634304462680 #extensionEnd,#mermaid-1634304462680 .extension{fill:#333333 !important;stroke:#333333 !important;stroke-width:1;}#mermaid-1634304462680 #aggregationStart,#mermaid-1634304462680 .aggregation{fill:#ECECFF !important;stroke:#333333 !important;stroke-width:1;}#mermaid-1634304462680 #aggregationEnd,#mermaid-1634304462680 .aggregation{fill:#ECECFF !important;stroke:#333333 !important;stroke-width:1;}#mermaid-1634304462680 .edgeTerminals{font-size:11px;}#mermaid-1634304462680:root{--mermaid-font-family:"trebuchet ms",verdana,arial,sans-serif;}#mermaid-1634304462680 class{fill:apa;}</style><g></g><defs><marker id="extensionStart" class="extension" refX="0" refY="7" markerWidth="190" markerHeight="240" orient="auto"><path d="M 1,7 L18,13 V 1 Z"></path></marker></defs><defs><marker id="extensionEnd" refX="19" refY="7" markerWidth="20" markerHeight="28" orient="auto"><path d="M 1,1 V 13 L18,7 Z"></path></marker></defs><defs><marker id="compositionStart" class="extension" refX="0" refY="7" markerWidth="190" markerHeight="240" orient="auto"><path d="M 18,7 L9,13 L1,7 L9,1 Z"></path></marker></defs><defs><marker id="compositionEnd" refX="19" refY="7" markerWidth="20" markerHeight="28" orient="auto"><path d="M 18,7 L9,13 L1,7 L9,1 Z"></path></marker></defs><defs><marker id="aggregationStart" class="extension" refX="0" refY="7" markerWidth="190" markerHeight="240" orient="auto"><path d="M 18,7 L9,13 L1,7 L9,1 Z"></path></marker></defs><defs><marker id="aggregationEnd" refX="19" refY="7" markerWidth="20" markerHeight="28" orient="auto"><path d="M 18,7 L9,13 L1,7 L9,1 Z"></path></marker></defs><defs><marker id="dependencyStart" class="extension" refX="0" refY="7" markerWidth="190" markerHeight="240" orient="auto"><path d="M 5,7 L9,13 L1,7 L9,1 Z"></path></marker></defs><defs><marker id="dependencyEnd" refX="19" refY="7" markerWidth="20" markerHeight="28" orient="auto"><path d="M 18,7 L9,13 L14,7 L9,1 Z"></path></marker></defs><g id="classid-Invoice-0" class="classGroup" transform="translate(133.43359375,0 )"><rect x="0" y="0" width="120.78125" height="101" class=" "></rect><text y="15" x="0"><tspan x="21.859375">«Aggregate root»</tspan><tspan class="title" dy="10" x="43.5234375">Invoice</tspan></text><line x1="0" y1="31" y2="31" x2="120.78125"></line><text x="5" y="41" fill="white" class="classText"><tspan x="5">+ Id</tspan><tspan x="5" dy="10">+ Customer</tspan><tspan x="5" dy="10">+ Address</tspan><tspan x="5" dy="10">+ Amount</tspan><tspan x="5" dy="10">+ OrderId</tspan><tspan x="5" dy="10">+ Status</tspan></text><line x1="0" y1="97" y2="97" x2="120.78125"></line><text x="5" y="112" fill="white" class="classText"></text></g><g id="classid-Payment-1" class="classGroup" transform="translate(0,166 )"><rect x="0" y="0" width="58.75" height="51" class=" "></rect><text y="15" x="0"><tspan class="title" x="8.71875">Payment</tspan></text><line x1="0" y1="21" y2="21" x2="58.75"></line><text x="5" y="31" fill="white" class="classText"><tspan x="5">+ Id</tspan><tspan x="5" dy="10">+ Amount</tspan></text><line x1="0" y1="47" y2="47" x2="58.75"></line><text x="5" y="62" fill="white" class="classText"></text></g><g id="classid-Customer-2" class="classGroup" transform="translate(108.75,166 )"><rect x="0" y="0" width="55.3125" height="51" class=" "></rect><text y="15" x="0"><tspan class="title" x="5">Customer</tspan></text><line x1="0" y1="21" y2="21" x2="55.3125"></line><text x="5" y="31" fill="white" class="classText"><tspan x="5">+ Id</tspan><tspan x="5" dy="10">+ Name</tspan></text><line x1="0" y1="47" y2="47" x2="55.3125"></line><text x="5" y="62" fill="white" class="classText"></text></g><g id="classid-Status-3" class="classGroup" transform="translate(214.0625,151 )"><rect x="0" y="0" width="74.359375" height="81" class=" "></rect><text y="15" x="0"><tspan x="19.640625">«Enum»</tspan><tspan class="title" dy="10" x="22.53125">Status</tspan></text><line x1="0" y1="31" y2="31" x2="74.359375"></line><text x="5" y="41" fill="white" class="classText"><tspan x="5">New</tspan><tspan x="5" dy="10">Paid</tspan><tspan x="5" dy="10">Overdue</tspan><tspan x="5" dy="10">Credited</tspan></text><line x1="0" y1="77" y2="77" x2="74.359375"></line><text x="5" y="92" fill="white" class="classText"></text></g><g id="classid-Address-4" class="classGroup" transform="translate(338.421875,156 )"><rect x="0" y="0" width="112.328125" height="71" class=" "></rect><text y="15" x="0"><tspan x="23.640625">«ValueObject»</tspan><tspan class="title" dy="10" x="37.015625">Address</tspan></text><line x1="0" y1="31" y2="31" x2="112.328125"></line><text x="5" y="41" fill="white" class="classText"><tspan x="5">+ Building</tspan><tspan x="5" dy="10">+ RoomNumber</tspan><tspan x="5" dy="10">+ Notes</tspan></text><line x1="0" y1="67" y2="67" x2="112.328125"></line><text x="5" y="82" fill="white" class="classText"></text></g><path d="M133.43359375,78.22583671821184L116.09049479166667,86.18819726517654C98.74739583333333,94.15055781214123,64.06119791666667,110.07527890607061,46.718098958333336,124.70430611970198C29.375,139.33333333333334,29.375,152.66666666666666,29.375,159.33333333333334L29.375,166" id="edge0" class="relation" marker-end="url(#dependencyEnd)"></path><path d="M155.41882243377484,101L152.25006036147903,105.16666666666667C149.08129828918322,109.33333333333333,142.7437741445916,117.66666666666667,139.5750120722958,128.5C136.40625,139.33333333333334,136.40625,152.66666666666666,136.40625,159.33333333333334L136.40625,166" id="edge1" class="relation" marker-end="url(#dependencyEnd)"></path><path d="M232.22961506622516,101L235.39837713852094,105.16666666666667C238.56713921081678,109.33333333333333,244.9046633554084,117.66666666666667,248.07342542770417,126C251.2421875,134.33333333333334,251.2421875,142.66666666666666,251.2421875,146.83333333333334L251.2421875,151" id="edge2" class="relation" marker-end="url(#dependencyEnd)"></path><path d="M254.21484375,73.2109641015663L277.6100260416667,82.00913675130526C301.0052083333333,90.80730940104421,347.7955729166667,108.40365470052211,371.1907552083333,122.20182735026106C394.5859375,136,394.5859375,146,394.5859375,151L394.5859375,156" id="edge3" class="relation" marker-end="url(#dependencyEnd)"></path></svg>